<?xml version="1.0" encoding="utf-8"?>
<!-- Generator: Adobe Illustrator 23.0.5, SVG Export Plug-In . SVG Version: 6.00 Build 0)  -->
<svg version="1.1" id="Layer_1" xmlns="http://www.w3.org/2000/svg" xmlns:xlink="http://www.w3.org/1999/xlink" x="0px" y="0px"
	 viewBox="0 0 1050.5 194.8" style="enable-background:new 0 0 1050.5 194.8;" xml:space="preserve">
<style type="text/css">
	.st0{display:none;fill:#FFFFFF;}
	.st1{display:none;fill:#000DFF;}
	.st2{fill:#FFFFFF;}
</style>
<title>wave12</title>
<path class="st0" d="M1050.5,146.9v47.9H0l166.7-84.5c64.4-32.7,139.8-36.4,207.1-10.1l70.7,27.6c74.6,29.1,158.5,21.3,226.4-21
	c40.8-25.4,87.4-38.3,134.2-38.3c31.8,0,63.8,6,94.2,18.1L1050.5,146.9z"/>
<path class="st1" d="M16,115.5v126.3h1050.5L900,166.2c-85.1-38.7-181.4-44.7-270.7-17.1c-36.6,11.3-74.6,17.1-112.9,17.1
	c-38.6,0-77-5.9-113.9-17.4l-50.8-15.9c-37.1-11.6-75.5-17.4-113.9-17.4H16z"/>
<path class="st2" d="M1051.5,0L885,75.6c-85.1,38.6-181.4,44.7-270.7,17.1c-36.6-11.3-74.6-17.1-112.9-17.1
	c-38.6,0-77,5.9-113.9,17.4l-50.8,15.9c-37.1,11.6-75.5,17.4-113.9,17.4H1V0H1051.5z"/>
</svg>
